<?xml version="1.0" standalone="no"?>
<!DOCTYPE svg PUBLIC "-//W3C//DTD SVG 20010904//EN"
 "http://www.w3.org/TR/2001/REC-SVG-20010904/DTD/svg10.dtd">
<svg version="1.0" xmlns="http://www.w3.org/2000/svg"
 width="70.000000pt" height="70.000000pt" viewBox="0 0 70.000000 70.000000"
 preserveAspectRatio="xMidYMid meet">
<metadata>
Created by potrace 1.14, written by Peter Selinger 2001-2017
</metadata>
<g transform="translate(0.000000,70.000000) scale(0.100000,-0.100000)"
fill="#000000" stroke="none">
<path d="M195 552 c-6 -4 -23 -41 -39 -82 -15 -41 -44 -116 -63 -167 -20 -51
-33 -99 -29 -108 7 -20 71 -47 100 -43 11 2 25 13 31 26 12 28 23 28 27 -1 3
-22 5 -22 193 -25 216 -3 215 -3 215 75 0 33 -6 50 -23 67 -25 25 -34 81 -16
102 6 7 9 32 7 56 l-3 43 -142 3 c-89 1 -143 6 -143 13 0 10 -75 48 -95 49 -5
0 -15 -4 -20 -8z m55 -33 c0 -6 10 -20 23 -30 22 -20 22 -20 0 -10 -31 16 -42
13 -36 -7 6 -23 -105 -254 -118 -246 -6 4 -6 10 0 17 16 20 63 196 55 208 -4
7 -3 9 3 6 6 -4 15 5 21 18 8 18 8 26 -1 32 -8 5 -3 10 13 14 37 10 40 10 40
-2z m280 -39 c0 -5 7 -10 15 -10 8 0 15 5 15 10 0 6 5 10 11 10 5 0 7 -4 4
-10 -3 -5 -1 -10 4 -10 6 0 11 -7 11 -15 0 -8 -4 -15 -10 -15 -5 0 -11 -8 -11
-17 -1 -14 -2 -14 -5 -3 -4 14 -55 20 -211 24 -24 1 -41 5 -40 11 2 5 10 10
18 11 8 0 43 2 79 4 l65 3 -60 7 c-59 7 -59 7 28 8 52 1 87 -2 87 -8z m-239
-73 c-10 -9 -11 -8 -5 6 3 10 9 15 12 12 3 -3 0 -11 -7 -18z m231 -59 c-6 -6
-24 -7 -44 -3 -27 7 -30 9 -14 15 27 9 70 0 58 -12z m25 -10 c-3 -7 -5 -2 -5
12 0 14 2 19 5 13 2 -7 2 -19 0 -25z m-9 -76 c8 -6 24 -9 37 -6 30 7 42 -12
15 -26 -15 -8 -20 -8 -20 1 0 8 -4 8 -15 -1 -10 -9 -38 -10 -102 -4 -48 5
-105 8 -125 7 -27 -1 -38 3 -38 13 0 10 14 14 54 14 30 0 58 5 61 11 9 14 116
7 133 -9z m-268 -18 c0 -2 -7 -4 -15 -4 -8 0 -15 4 -15 10 0 5 7 7 15 4 8 -4
15 -8 15 -10z m-153 -60 c-9 -9 -28 6 -21 18 4 6 10 6 17 -1 6 -6 8 -13 4 -17z"/>
</g>
</svg>
